<mxfile host="app.diagrams.net" modified="2024-05-08T08:29:25.435Z" agent="Mozilla/5.0 (Macintosh; Intel Mac OS X 10_15_7) AppleWebKit/537.36 (KHTML, like Gecko) Chrome/123.0.0.0 Safari/537.36" version="24.3.1" etag="qEq3AncIqdwXs1MD5GLo" type="github">
  <diagram name="第 1 页" id="Pp-75ZngFEsOOak7LyUB">
    <mxGraphModel>
      <root>
        <mxCell id="0" />
        <mxCell id="1" parent="0" />
      </root>
    </mxGraphModel>
  </diagram>
</mxfile>
